<svg width="331" height="297" viewBox="0 0 331 297" fill="none" xmlns="http://www.w3.org/2000/svg">
<g clip-path="url(#clip0_55_100)">
<path d="M205.656 172.587H84.4144C80.303 172.583 76.3613 170.955 73.454 168.062C70.5468 165.168 68.9114 161.245 68.9068 157.153V15.4346C68.9114 11.3425 70.5468 7.41936 73.454 4.52581C76.3613 1.63225 80.303 0.00462244 84.4144 0H197.21L221.164 19.0028V157.153C221.159 161.245 219.524 165.168 216.616 168.062C213.709 170.955 209.768 172.583 205.656 172.587Z" fill="#E6E6E6"/>
<path d="M84.4144 4.4433C81.4865 4.44658 78.6795 5.60565 76.6092 7.66621C74.5389 9.72678 73.3743 12.5206 73.371 15.4346V157.153C73.3743 160.067 74.5389 162.861 76.6092 164.921C78.6795 166.982 81.4865 168.141 84.4144 168.144H205.656C208.584 168.141 211.391 166.982 213.461 164.921C215.531 162.861 216.696 160.067 216.699 157.153V21.1434L195.648 4.4433H84.4144Z" fill="white"/>
<path d="M182.075 45.6511H126.875C126.536 45.6511 126.2 45.5846 125.887 45.4555C125.573 45.3263 125.289 45.137 125.049 44.8983C124.809 44.6596 124.619 44.3763 124.489 44.0644C124.359 43.7526 124.292 43.4184 124.292 43.0808C124.292 42.7433 124.359 42.4091 124.489 42.0972C124.619 41.7854 124.809 41.502 125.049 41.2634C125.289 41.0247 125.573 40.8354 125.887 40.7062C126.2 40.577 126.536 40.5106 126.875 40.5106H182.075C182.414 40.5106 182.749 40.577 183.063 40.7062C183.376 40.8354 183.661 41.0247 183.901 41.2634C184.14 41.502 184.331 41.7854 184.46 42.0972C184.59 42.4091 184.657 42.7433 184.657 43.0808C184.657 43.4184 184.59 43.7526 184.46 44.0644C184.331 44.3763 184.14 44.6596 183.901 44.8983C183.661 45.137 183.376 45.3263 183.063 45.4555C182.749 45.5846 182.414 45.6511 182.075 45.6511Z" fill="#CCCCCC"/>
<path d="M192.727 54.3258H126.875C126.19 54.3258 125.533 54.055 125.049 53.573C124.565 53.091 124.292 52.4372 124.292 51.7556C124.292 51.0739 124.565 50.4201 125.049 49.9381C125.533 49.4561 126.19 49.1853 126.875 49.1853H192.727C193.412 49.1853 194.069 49.4561 194.553 49.9381C195.037 50.4201 195.31 51.0739 195.31 51.7556C195.31 52.4372 195.037 53.091 194.553 53.573C194.069 54.055 193.412 54.3258 192.727 54.3258Z" fill="#CCCCCC"/>
<path d="M182.075 84.5266H126.875C126.19 84.5266 125.533 84.2558 125.049 83.7738C124.565 83.2918 124.292 82.638 124.292 81.9563C124.292 81.2747 124.565 80.6209 125.049 80.1389C125.533 79.6569 126.19 79.3861 126.875 79.3861H182.075C182.759 79.3861 183.416 79.6569 183.901 80.1389C184.385 80.6209 184.657 81.2747 184.657 81.9563C184.657 82.638 184.385 83.2918 183.901 83.7738C183.416 84.2558 182.759 84.5266 182.075 84.5266Z" fill="#CCCCCC"/>
<path d="M192.727 93.2013H126.875C126.19 93.2013 125.533 92.9305 125.049 92.4485C124.565 91.9665 124.292 91.3127 124.292 90.631C124.292 89.9494 124.565 89.2956 125.049 88.8136C125.533 88.3316 126.19 88.0608 126.875 88.0608H192.727C193.412 88.0608 194.069 88.3316 194.553 88.8136C195.037 89.2956 195.31 89.9494 195.31 90.631C195.31 91.3127 195.037 91.9665 194.553 92.4485C194.069 92.9305 193.412 93.2013 192.727 93.2013Z" fill="#CCCCCC"/>
<path d="M182.075 123.402H126.875C126.19 123.402 125.533 123.131 125.049 122.649C124.565 122.167 124.292 121.514 124.292 120.832C124.292 120.15 124.565 119.496 125.049 119.014C125.533 118.532 126.19 118.262 126.875 118.262H182.075C182.759 118.262 183.416 118.532 183.901 119.014C184.385 119.496 184.657 120.15 184.657 120.832C184.657 121.514 184.385 122.167 183.901 122.649C183.416 123.131 182.759 123.402 182.075 123.402Z" fill="#CCCCCC"/>
<path d="M192.727 132.077H126.875C126.19 132.077 125.533 131.806 125.049 131.324C124.565 130.842 124.292 130.188 124.292 129.507C124.292 128.825 124.565 128.171 125.049 127.689C125.533 127.207 126.19 126.936 126.875 126.936H192.727C193.412 126.936 194.069 127.207 194.553 127.689C195.037 128.171 195.31 128.825 195.31 129.507C195.31 130.188 195.037 130.842 194.553 131.324C194.069 131.806 193.412 132.077 192.727 132.077Z" fill="#CCCCCC"/>
<path d="M103.888 56.5027C108.929 56.5027 113.016 52.4355 113.016 47.4182C113.016 42.401 108.929 38.3337 103.888 38.3337C98.8474 38.3337 94.7609 42.401 94.7609 47.4182C94.7609 52.4355 98.8474 56.5027 103.888 56.5027Z" fill="#20927B"/>
<path d="M102.984 50.8837C102.779 50.884 102.579 50.8179 102.414 50.6953L102.404 50.6877L100.259 49.0545C100.059 48.9013 99.9277 48.6752 99.8947 48.4259C99.8617 48.1765 99.9295 47.9244 100.083 47.7248C100.237 47.5252 100.464 47.3945 100.715 47.3615C100.965 47.3285 101.218 47.3957 101.419 47.5486L102.809 48.609L106.092 44.3458C106.168 44.247 106.263 44.164 106.371 44.1017C106.48 44.0394 106.599 43.9989 106.723 43.9826C106.847 43.9663 106.973 43.9745 107.094 44.0067C107.215 44.0389 107.328 44.0944 107.428 44.1702L107.408 44.1986L107.429 44.1704C107.629 44.3237 107.76 44.5497 107.793 44.7991C107.826 45.0484 107.758 45.3006 107.605 45.5003L103.743 50.5126C103.654 50.628 103.539 50.7215 103.407 50.7857C103.276 50.8498 103.131 50.883 102.985 50.8826L102.984 50.8837Z" fill="white"/>
<path d="M104.828 95.3782C109.869 95.3782 113.956 91.3109 113.956 86.2937C113.956 81.2765 109.869 77.2092 104.828 77.2092C99.7873 77.2092 95.7007 81.2765 95.7007 86.2937C95.7007 91.3109 99.7873 95.3782 104.828 95.3782Z" fill="#CCCCCC"/>
<path d="M103.888 134.254C108.929 134.254 113.016 130.186 113.016 125.169C113.016 120.152 108.929 116.085 103.888 116.085C98.8474 116.085 94.7609 120.152 94.7609 125.169C94.7609 130.186 98.8474 134.254 103.888 134.254Z" fill="#CCCCCC"/>
<path d="M220.697 19.6144H201.934C200.564 19.6144 199.25 19.0728 198.281 18.1087C197.313 17.1447 196.769 15.8372 196.769 14.4738V0.680391C196.769 0.620002 196.786 0.560831 196.818 0.509672C196.85 0.458513 196.896 0.417434 196.951 0.391144C197.006 0.364855 197.067 0.354418 197.127 0.361034C197.187 0.36765 197.244 0.391049 197.292 0.428548L220.898 19.0412C220.95 19.0827 220.989 19.1393 221.007 19.2034C221.026 19.2674 221.024 19.3357 221.002 19.3987C220.98 19.4617 220.939 19.5163 220.884 19.555C220.83 19.5936 220.764 19.6144 220.697 19.6144Z" fill="#E6E6E6"/>
<path d="M93.6793 199.141L21.9466 214.189C19.8736 214.622 17.7129 214.218 15.9386 213.067C14.1642 211.916 12.9211 210.111 12.4819 208.049L0.172672 149.926C-0.261841 147.863 0.143672 145.713 1.30025 143.947C2.45682 142.181 4.27 140.943 6.342 140.506L78.0747 125.457C80.1477 125.025 82.3083 125.428 84.0827 126.58C85.8571 127.731 87.1002 129.535 87.5394 131.598L99.8486 189.721C100.283 191.784 99.8776 193.934 98.721 195.7C97.5645 197.466 95.7513 198.704 93.6793 199.141Z" fill="white"/>
<path d="M93.6793 199.141L21.9466 214.189C19.8736 214.622 17.7129 214.218 15.9386 213.067C14.1642 211.916 12.9211 210.111 12.4819 208.049L0.172672 149.926C-0.261841 147.863 0.143672 145.713 1.30025 143.947C2.45682 142.181 4.27 140.943 6.342 140.506L78.0747 125.457C80.1477 125.025 82.3083 125.428 84.0827 126.58C85.8571 127.731 87.1002 129.535 87.5394 131.598L99.8486 189.721C100.283 191.784 99.8776 193.934 98.721 195.7C97.5645 197.466 95.7513 198.704 93.6793 199.141ZM6.53585 141.422C4.70762 141.807 3.10776 142.899 2.08726 144.457C1.06675 146.015 0.708936 147.913 1.09232 149.733L13.4015 207.856C13.7891 209.676 14.8859 211.268 16.4516 212.284C18.0172 213.3 19.9237 213.656 21.7528 213.274L93.4854 198.225C95.3137 197.84 96.9135 196.748 97.934 195.19C98.9545 193.631 99.3123 191.734 98.929 189.913L86.6198 131.791C86.2322 129.971 85.1353 128.379 83.5697 127.363C82.0041 126.347 80.0976 125.991 78.2685 126.373L6.53585 141.422Z" fill="#3F3D56"/>
<path d="M73.6178 144.622L37.4152 152.217C37.0984 152.29 36.7655 152.241 36.4838 152.079C36.2021 151.917 35.9926 151.655 35.8977 151.346C35.8543 151.184 35.8444 151.016 35.8686 150.85C35.8928 150.685 35.9506 150.526 36.0385 150.384C36.1264 150.241 36.2425 150.118 36.3797 150.022C36.517 149.926 36.6725 149.858 36.8369 149.824L73.6888 142.093C75.1277 142.9 74.6734 144.401 73.6178 144.622Z" fill="#CCCCCC"/>
<path d="M74.9563 150.942L38.7537 158.537C38.4369 158.611 38.104 158.561 37.8223 158.4C37.5406 158.238 37.3311 157.976 37.2362 157.666C37.1928 157.505 37.1829 157.336 37.2071 157.171C37.2313 157.005 37.2891 156.846 37.377 156.704C37.4648 156.562 37.581 156.438 37.7182 156.342C37.8555 156.246 38.0111 156.178 38.1754 156.144L75.0273 148.413C76.4662 149.22 76.0119 150.721 74.9563 150.942Z" fill="#CCCCCC"/>
<path d="M31.6897 163.778L20.641 166.096C20.2802 166.171 19.9041 166.101 19.5952 165.9C19.2864 165.7 19.07 165.386 18.9936 165.027L16.2453 152.05C16.1697 151.691 16.2402 151.317 16.4415 151.009C16.6429 150.702 16.9585 150.486 17.3192 150.41L28.3678 148.092C28.7286 148.017 29.1047 148.087 29.4135 148.288C29.7224 148.488 29.9387 148.802 30.0153 149.161L32.7635 162.138C32.8392 162.497 32.7686 162.872 32.5673 163.179C32.366 163.486 32.0503 163.702 31.6897 163.778Z" fill="#CCCCCC"/>
<path d="M77.5915 163.905L22.3398 175.497C22.023 175.57 21.6901 175.521 21.4084 175.359C21.1267 175.197 20.9172 174.935 20.8223 174.625C20.7789 174.464 20.769 174.295 20.7932 174.13C20.8174 173.964 20.8752 173.806 20.9631 173.663C21.051 173.521 21.1671 173.398 21.3044 173.301C21.4416 173.205 21.5972 173.138 21.7615 173.103L77.6631 161.376C79.102 162.183 78.6472 163.684 77.5915 163.905Z" fill="#CCCCCC"/>
<path d="M78.9304 170.227L23.6787 181.819C23.3619 181.892 23.029 181.843 22.7473 181.681C22.4656 181.519 22.2561 181.257 22.1612 180.947C22.1178 180.786 22.1079 180.617 22.1321 180.452C22.1563 180.287 22.2141 180.128 22.302 179.985C22.3899 179.843 22.506 179.72 22.6433 179.624C22.7805 179.527 22.9361 179.46 23.1004 179.425L79.002 167.698C80.4409 168.505 79.9861 170.006 78.9304 170.227Z" fill="#CCCCCC"/>
<path d="M80.2685 176.545L25.0167 188.137C24.6999 188.21 24.367 188.161 24.0853 187.999C23.8036 187.837 23.5941 187.575 23.4992 187.265C23.4558 187.104 23.4459 186.935 23.4701 186.77C23.4943 186.605 23.5521 186.446 23.64 186.303C23.7279 186.161 23.844 186.038 23.9813 185.942C24.1185 185.845 24.2741 185.778 24.4384 185.743L80.34 174.016C81.7789 174.823 81.3241 176.324 80.2685 176.545Z" fill="#CCCCCC"/>
<path d="M81.6073 182.867L26.3556 194.458C26.0388 194.532 25.7058 194.482 25.4241 194.321C25.1424 194.159 24.9329 193.897 24.838 193.587C24.7946 193.426 24.7847 193.257 24.8089 193.092C24.8331 192.926 24.8909 192.767 24.9788 192.625C25.0667 192.483 25.1828 192.359 25.3201 192.263C25.4573 192.167 25.6129 192.099 25.7772 192.065L81.6788 180.337C83.1177 181.144 82.6629 182.646 81.6073 182.867Z" fill="#CCCCCC"/>
<path d="M82.9454 189.186L27.6936 200.777C27.3768 200.85 27.0439 200.801 26.7622 200.639C26.4805 200.477 26.271 200.215 26.1761 199.905C26.1327 199.744 26.1228 199.575 26.147 199.41C26.1712 199.245 26.229 199.086 26.3169 198.943C26.4048 198.801 26.5209 198.678 26.6582 198.582C26.7954 198.485 26.951 198.418 27.1153 198.383L83.0169 186.656C84.4558 187.463 84.001 188.964 82.9454 189.186Z" fill="#CCCCCC"/>
<path d="M92.6985 160.249C92.573 160.476 92.4656 160.712 92.3774 160.956L69.7582 166.542L65.8233 162.491L58.9036 167.602L65.1692 175.448C65.6754 176.082 66.3745 176.536 67.1616 176.74C67.9487 176.945 68.7813 176.89 69.5344 176.584L94.0784 166.602C94.8852 167.193 95.8536 167.526 96.8549 167.555C97.8561 167.585 98.8428 167.311 99.6837 166.769C100.525 166.227 101.18 165.444 101.562 164.522C101.944 163.6 102.036 162.585 101.824 161.61C101.613 160.636 101.108 159.749 100.377 159.067C99.6464 158.385 98.7244 157.94 97.7337 157.792C96.7431 157.645 95.7307 157.801 94.8313 158.24C93.9318 158.678 93.1879 159.379 92.6985 160.249Z" fill="#A0616A"/>
<path d="M15.4908 209.964C16.196 209.747 16.8448 209.379 17.3917 208.886C17.9385 208.393 18.37 207.786 18.6557 207.109C18.9415 206.432 19.0746 205.7 19.0456 204.966C19.0167 204.232 18.8264 203.513 18.4882 202.861L34.0542 159.799L23.2441 157.892L11.3424 200.82C10.2781 201.458 9.48597 202.463 9.11616 203.643C8.74634 204.824 8.82451 206.099 9.33586 207.226C9.84721 208.353 10.7562 209.254 11.8906 209.759C13.025 210.264 14.306 210.337 15.4908 209.964Z" fill="#A0616A"/>
<path d="M32.0772 167.443L21.404 163.366C21.1003 163.25 20.8253 163.07 20.5977 162.839C20.3702 162.608 20.1954 162.33 20.0852 162.026C19.9751 161.721 19.9322 161.396 19.9595 161.074C19.9868 160.751 20.0836 160.438 20.2434 160.156L25.8426 150.275C26.4478 148.732 27.6431 147.491 29.1662 146.824C30.6894 146.157 32.4162 146.118 33.9681 146.716C35.52 147.314 36.7704 148.5 37.4451 150.014C38.1197 151.528 38.1637 153.247 37.5673 154.793L35.0976 165.83C35.0268 166.146 34.8884 166.443 34.6918 166.701C34.4952 166.959 34.2451 167.172 33.9585 167.325C33.6719 167.478 33.3555 167.568 33.0308 167.588C32.7062 167.609 32.3809 167.559 32.0772 167.443Z" fill="#20927B"/>
<path d="M56.1682 290.81L61.9296 290.81L64.6702 268.692L56.1673 268.693L56.1682 290.81Z" fill="#A0616A"/>
<path d="M54.6985 288.938L66.0444 288.938H66.0449C66.9944 288.938 67.9346 289.124 68.8119 289.485C69.6891 289.847 70.4862 290.377 71.1577 291.045C71.8291 291.714 72.3617 292.507 72.725 293.38C73.0884 294.253 73.2754 295.189 73.2754 296.134V296.368L54.6989 296.369L54.6985 288.938Z" fill="#282737"/>
<path d="M23.7432 290.81L29.5045 290.81L32.2451 268.692L23.7422 268.693L23.7432 290.81Z" fill="#A0616A"/>
<path d="M22.2735 288.938L33.6193 288.938H33.6198C34.5693 288.938 35.5096 289.124 36.3868 289.485C37.2641 289.847 38.0612 290.377 38.7326 291.045C39.404 291.714 39.9366 292.507 40.3 293.38C40.6633 294.253 40.8504 295.189 40.8503 296.134V296.368L22.2738 296.369L22.2735 288.938Z" fill="#282737"/>
<path d="M29.7828 281.908H22.492C22.2059 281.908 21.9227 281.85 21.6597 281.738C21.3966 281.626 21.1592 281.462 20.9617 281.256C20.7642 281.05 20.6108 280.806 20.5108 280.539C20.4108 280.272 20.3662 279.988 20.3798 279.703L23.8428 205.649L24.0611 205.643L59.2677 204.729L66.1571 278.826C66.1836 279.104 66.1543 279.384 66.071 279.651C65.9877 279.917 65.852 280.165 65.6718 280.378C65.4916 280.592 65.2705 280.768 65.0214 280.896C64.7722 281.024 64.5 281.101 64.2206 281.124L56.0315 281.775C55.517 281.816 55.0054 281.668 54.5928 281.36C54.1802 281.051 53.8951 280.603 53.7913 280.1L43.3164 227.353C43.2879 227.192 43.2025 227.048 43.0758 226.945C42.9491 226.842 42.7896 226.787 42.6261 226.792H42.6232C42.4592 226.788 42.2993 226.843 42.1728 226.947C42.0463 227.051 41.9616 227.197 41.9342 227.358L31.8577 280.21C31.7622 280.688 31.5034 281.119 31.1251 281.428C30.7469 281.738 30.2725 281.907 29.7828 281.908Z" fill="#282737"/>
<path d="M43.138 139.602C49.5125 139.602 54.68 134.459 54.68 128.114C54.68 121.77 49.5125 116.627 43.138 116.627C36.7636 116.627 31.5961 121.77 31.5961 128.114C31.5961 134.459 36.7636 139.602 43.138 139.602Z" fill="#A0616A"/>
<path d="M39.2679 214.327C33.7668 214.327 28.1164 212.888 23.4322 208.633C23.183 208.408 22.9905 208.128 22.8705 207.815C22.7505 207.502 22.7064 207.165 22.7417 206.832C23.243 202.349 25.6751 179.199 24.3054 163.735C24.0382 160.847 24.449 157.936 25.5056 155.233C26.5622 152.53 28.2355 150.108 30.3936 148.158C32.514 146.213 35.0594 144.785 37.8291 143.987C40.5988 143.189 43.517 143.042 46.3534 143.559C46.4972 143.584 46.6409 143.611 46.7848 143.639C56.0253 145.419 62.4456 153.93 61.7191 163.438C60.659 177.31 59.7088 196.074 61.2009 206.686C61.2627 207.12 61.1866 207.563 60.9831 207.952C60.7796 208.341 60.459 208.656 60.0661 208.855C56.671 210.562 48.1646 214.327 39.2679 214.327Z" fill="#20927B"/>
<path d="M54.3288 168.27C54.058 168.09 53.8292 167.855 53.6581 167.58C53.487 167.304 53.3777 166.995 53.3375 166.674L51.9313 155.454C51.4849 153.858 51.6925 152.151 52.5085 150.708C53.3245 149.264 54.6823 148.201 56.2843 147.753C57.8863 147.304 59.6017 147.506 61.0544 148.314C62.5071 149.122 63.5786 150.47 64.0339 152.064L68.6656 162.429C68.7978 162.724 68.8644 163.045 68.8608 163.369C68.8572 163.693 68.7835 164.012 68.6448 164.305C68.5062 164.598 68.3057 164.857 68.0571 165.066C67.8085 165.275 67.5176 165.428 67.2042 165.515L56.1904 168.565C55.877 168.652 55.5484 168.671 55.2272 168.62C54.9059 168.569 54.5995 168.449 54.3288 168.27Z" fill="#20927B"/>
<path d="M39.1088 139.44C38.0164 139.46 36.9307 139.264 35.9146 138.864C35.4676 138.693 35.0034 138.552 34.5572 138.38C30.6161 136.865 28.0199 132.687 27.9269 128.483C27.8339 124.279 30.0214 120.199 33.2696 117.509C36.5178 114.82 40.725 113.44 44.9379 113.12C49.4758 112.777 54.5856 113.922 57.1214 117.683C57.7963 118.685 58.2684 119.899 57.8684 121.108C57.7486 121.473 57.5347 121.8 57.248 122.057C56.1156 123.059 54.9866 122.305 53.8322 122.239C52.2455 122.147 50.8203 123.426 50.3081 124.923C49.7958 126.421 50.0213 128.069 50.4349 129.597C50.75 130.516 50.9486 131.47 51.0262 132.438C51.0596 132.924 50.9679 133.41 50.7597 133.85C50.5516 134.29 50.2339 134.67 49.8368 134.954C48.8453 135.551 47.5432 135.205 46.5511 134.61C45.559 134.014 44.7018 133.186 43.6302 132.748C42.5585 132.31 41.1188 132.407 40.495 133.379C40.2968 133.732 40.1626 134.118 40.0987 134.518C39.5395 137.053 39.668 136.904 39.1088 139.44Z" fill="#282737"/>
<path d="M90.0702 297H0.783771C0.659139 297 0.53961 296.951 0.451481 296.863C0.363353 296.775 0.313843 296.656 0.313843 296.532C0.313843 296.408 0.363353 296.289 0.451481 296.202C0.53961 296.114 0.659139 296.065 0.783771 296.065H90.0702C90.1949 296.065 90.3144 296.114 90.4025 296.202C90.4906 296.289 90.5402 296.408 90.5402 296.532C90.5402 296.656 90.4906 296.775 90.4025 296.863C90.3144 296.951 90.1949 297 90.0702 297Z" fill="#CCCCCC"/>
<path d="M318.617 200.477L254.68 236.172C252.832 237.201 250.648 237.459 248.61 236.888C246.571 236.317 244.843 234.964 243.804 233.127L214.608 181.321C213.573 179.481 213.315 177.308 213.888 175.279C214.462 173.249 215.821 171.529 217.667 170.496L281.604 134.801C283.453 133.772 285.636 133.514 287.675 134.085C289.714 134.656 291.442 136.009 292.48 137.846L321.677 189.653C322.711 191.492 322.969 193.665 322.396 195.694C321.822 197.724 320.463 199.444 318.617 200.477Z" fill="white"/>
<path d="M318.617 200.477L254.68 236.172C252.832 237.201 250.648 237.459 248.61 236.888C246.571 236.317 244.843 234.964 243.804 233.127L214.608 181.321C213.573 179.481 213.315 177.308 213.888 175.279C214.462 173.249 215.821 171.529 217.667 170.496L281.604 134.801C283.453 133.772 285.636 133.514 287.675 134.085C289.714 134.656 291.442 136.009 292.48 137.846L321.677 189.653C322.711 191.492 322.969 193.665 322.396 195.694C321.822 197.724 320.463 199.444 318.617 200.477ZM218.127 171.312C216.498 172.224 215.299 173.741 214.793 175.532C214.287 177.322 214.515 179.24 215.427 180.863L244.624 232.669C245.54 234.291 247.065 235.484 248.864 235.988C250.663 236.491 252.589 236.264 254.22 235.356L318.158 199.661C319.786 198.749 320.985 197.232 321.492 195.441C321.998 193.651 321.769 191.733 320.857 190.11L291.66 138.304C290.744 136.682 289.219 135.489 287.42 134.985C285.621 134.482 283.695 134.709 282.064 135.617L218.127 171.312Z" fill="#3F3D56"/>
<path d="M283.105 154.416L250.836 172.43C250.556 172.595 250.223 172.647 249.906 172.576C249.589 172.505 249.31 172.317 249.126 172.05C249.036 171.909 248.976 171.751 248.95 171.586C248.923 171.421 248.931 171.252 248.972 171.09C249.013 170.928 249.087 170.776 249.189 170.644C249.291 170.511 249.419 170.4 249.566 170.318L282.413 151.981C284.028 152.323 284.045 153.89 283.105 154.416Z" fill="#CCCCCC"/>
<path d="M286.279 160.049L254.011 178.064C253.731 178.228 253.398 178.28 253.081 178.209C252.763 178.139 252.485 177.951 252.301 177.684C252.211 177.543 252.151 177.385 252.125 177.22C252.098 177.055 252.106 176.886 252.147 176.724C252.188 176.562 252.262 176.41 252.364 176.277C252.466 176.144 252.594 176.034 252.741 175.952L285.588 157.614C287.203 157.956 287.22 159.524 286.279 160.049Z" fill="#CCCCCC"/>
<path d="M248.843 185.166L238.995 190.664C238.673 190.843 238.293 190.888 237.938 190.788C237.584 190.689 237.283 190.454 237.102 190.134L230.583 178.567C230.403 178.247 230.358 177.869 230.458 177.515C230.558 177.162 230.795 176.863 231.116 176.683L240.964 171.185C241.286 171.006 241.666 170.961 242.02 171.061C242.375 171.16 242.676 171.395 242.857 171.715L249.376 183.282C249.556 183.602 249.601 183.98 249.501 184.333C249.401 184.687 249.164 184.986 248.843 185.166Z" fill="#CCCCCC"/>
<path d="M292.686 171.636L243.439 199.13C243.158 199.294 242.826 199.346 242.508 199.275C242.191 199.205 241.912 199.017 241.729 198.75C241.639 198.608 241.579 198.451 241.552 198.286C241.526 198.12 241.533 197.952 241.574 197.79C241.616 197.628 241.689 197.476 241.791 197.343C241.894 197.21 242.022 197.1 242.168 197.018L291.995 169.201C293.61 169.543 293.627 171.111 292.686 171.636Z" fill="#CCCCCC"/>
<path d="M295.862 177.271L246.614 204.765C246.334 204.929 246.002 204.981 245.684 204.91C245.367 204.84 245.088 204.652 244.905 204.385C244.815 204.244 244.755 204.086 244.728 203.921C244.702 203.756 244.709 203.587 244.75 203.425C244.791 203.263 244.865 203.111 244.967 202.978C245.069 202.845 245.198 202.735 245.344 202.653L295.171 174.836C296.786 175.178 296.803 176.746 295.862 177.271Z" fill="#CCCCCC"/>
<path d="M299.036 182.903L249.788 210.396C249.508 210.56 249.175 210.612 248.858 210.542C248.541 210.471 248.262 210.283 248.078 210.016C247.988 209.875 247.928 209.717 247.902 209.552C247.875 209.387 247.883 209.218 247.924 209.056C247.965 208.894 248.039 208.742 248.141 208.609C248.243 208.477 248.371 208.366 248.518 208.284L298.344 180.467C299.96 180.809 299.977 182.377 299.036 182.903Z" fill="#CCCCCC"/>
<path d="M302.211 188.537L252.964 216.031C252.683 216.195 252.351 216.247 252.034 216.177C251.716 216.106 251.438 215.918 251.254 215.651C251.164 215.51 251.104 215.352 251.077 215.187C251.051 215.022 251.058 214.853 251.1 214.691C251.141 214.529 251.214 214.377 251.317 214.244C251.419 214.111 251.547 214.001 251.693 213.919L301.52 186.102C303.135 186.444 303.152 188.012 302.211 188.537Z" fill="#CCCCCC"/>
<path d="M305.385 194.169L256.138 221.663C255.857 221.827 255.525 221.879 255.207 221.808C254.89 221.738 254.611 221.55 254.428 221.283C254.338 221.141 254.278 220.984 254.251 220.818C254.225 220.653 254.232 220.485 254.273 220.323C254.315 220.161 254.388 220.009 254.49 219.876C254.593 219.743 254.721 219.633 254.867 219.551L304.694 191.734C306.309 192.076 306.326 193.644 305.385 194.169Z" fill="#CCCCCC"/>
<path d="M296.793 215.274C297.062 214.685 297.197 214.045 297.189 213.399C297.182 212.752 297.033 212.115 296.751 211.533C296.47 210.95 296.064 210.436 295.561 210.027C295.058 209.617 294.472 209.322 293.842 209.163L292.503 193.507L286.062 198.564L288.321 212.656C288.122 213.726 288.325 214.832 288.89 215.763C289.456 216.695 290.345 217.388 291.389 217.71C292.433 218.033 293.56 217.963 294.556 217.514C295.552 217.065 296.348 216.268 296.793 215.274Z" fill="#FFB8B8"/>
<path d="M292.625 207.523L287.275 208.158C287.004 208.191 286.728 208.167 286.466 208.088C286.204 208.009 285.961 207.878 285.753 207.701C285.544 207.525 285.374 207.307 285.254 207.063C285.134 206.818 285.066 206.551 285.054 206.279L284.274 188.318L274.134 160.748C273.727 159.892 273.542 158.949 273.595 158.004C273.647 157.06 273.936 156.143 274.435 155.337C274.684 154.948 274.968 154.583 275.285 154.246C275.909 153.577 276.686 153.069 277.55 152.763C278.415 152.458 279.34 152.365 280.248 152.492C281.184 152.616 282.076 152.96 282.851 153.496C283.626 154.032 284.262 154.745 284.705 155.574L291.317 169.366C294.083 175.134 295.389 181.488 295.121 187.874L294.375 205.642C294.356 206.107 294.172 206.55 293.857 206.894C293.541 207.237 293.114 207.459 292.651 207.52L292.625 207.523Z" fill="#20927B"/>
<path d="M311.622 285.15L306.662 287.316L295.906 269.308L303.225 266.11L311.622 285.15Z" fill="#FFB8B8"/>
<path d="M314.997 289.382L299.006 296.369L298.917 296.167C298.558 295.354 298.364 294.478 298.345 293.59C298.326 292.701 298.483 291.818 298.808 290.99C299.132 290.162 299.617 289.406 300.235 288.765C300.853 288.124 301.591 287.61 302.409 287.253L312.176 282.986L314.997 289.382Z" fill="#282737"/>
<path d="M245.038 291.143H239.622L237.045 270.349L245.039 270.35L245.038 291.143Z" fill="#FFB8B8"/>
<path d="M246.419 296.369L228.955 296.368V296.148C228.955 295.26 229.131 294.38 229.472 293.559C229.814 292.738 230.315 291.992 230.946 291.364C231.577 290.736 232.326 290.238 233.151 289.898C233.976 289.558 234.86 289.383 235.753 289.383L246.42 289.383L246.419 296.369Z" fill="#282737"/>
<path d="M297.771 284.035L267.599 217.019C267.544 216.893 267.452 216.787 267.335 216.716C267.217 216.645 267.08 216.612 266.943 216.622C266.806 216.632 266.676 216.683 266.569 216.77C266.463 216.857 266.387 216.975 266.351 217.107L247.967 281.836C247.846 282.289 247.566 282.684 247.178 282.95C246.79 283.216 246.319 283.335 245.85 283.286L235.81 282.287C235.293 282.233 234.817 281.98 234.484 281.583C234.151 281.185 233.986 280.674 234.025 280.158C237.219 240.625 242.253 203.313 257.335 178.888L257.415 178.758L280.227 183.21L310.682 279.734C310.832 280.232 310.781 280.768 310.54 281.228C310.298 281.688 309.885 282.036 309.389 282.197L300.205 285.135C299.735 285.287 299.224 285.258 298.774 285.055C298.323 284.851 297.966 284.487 297.771 284.035Z" fill="#282737"/>
<path d="M268.441 144.559C274.434 144.559 279.292 139.724 279.292 133.759C279.292 127.795 274.434 122.959 268.441 122.959C262.448 122.959 257.59 127.795 257.59 133.759C257.59 139.724 262.448 144.559 268.441 144.559Z" fill="#FFB8B8"/>
<path d="M255.933 180.758L255.794 180.729L255.762 180.593C254.3 174.449 254.265 167.744 255.658 160.666C256.365 157.047 258.331 153.794 261.212 151.477C264.092 149.161 267.702 147.93 271.404 148.002C275.422 148.083 279.256 149.689 282.123 152.492C284.99 155.294 286.672 159.081 286.826 163.077C287.292 175.253 282.292 185.808 282.242 185.914L282.167 186.068L255.933 180.758Z" fill="#20927B"/>
<path d="M226.844 201.304C227.487 201.209 228.101 200.976 228.643 200.62C229.184 200.263 229.641 199.793 229.981 199.242C230.321 198.691 230.535 198.073 230.609 197.431C230.682 196.788 230.613 196.138 230.407 195.525L242.905 185.925L235.145 183.275L224.466 192.798C223.455 193.211 222.631 193.979 222.15 194.957C221.67 195.934 221.566 197.053 221.859 198.102C222.152 199.15 222.822 200.055 223.74 200.646C224.659 201.236 225.764 201.47 226.844 201.304Z" fill="#FFB8B8"/>
<path d="M233.671 194.064C233.264 194.303 232.784 194.39 232.319 194.308C231.853 194.226 231.432 193.982 231.132 193.618L227.699 189.486C227.524 189.276 227.395 189.033 227.32 188.771C227.244 188.509 227.224 188.235 227.26 187.965C227.296 187.695 227.388 187.435 227.53 187.202C227.671 186.969 227.86 186.767 228.083 186.61L242.831 176.229L260.625 152.813C261.127 152.01 261.823 151.344 262.65 150.876C263.477 150.409 264.407 150.154 265.358 150.135C265.821 150.132 266.284 150.172 266.739 150.255C267.642 150.415 268.493 150.79 269.219 151.347C269.945 151.905 270.525 152.629 270.909 153.458C271.311 154.308 271.504 155.241 271.471 156.18C271.438 157.118 271.18 158.036 270.72 158.856L257.544 180.093L257.515 180.14L233.671 194.064Z" fill="#20927B"/>
<path d="M270.381 133.089C269.581 131.78 267.817 131.41 266.284 131.559C264.752 131.708 263.262 132.244 261.722 132.233C257.448 132.2 254.148 127.014 255.945 123.153C257.419 119.987 261.1 118.597 264.431 117.506C271.413 115.218 279.433 113.02 285.769 116.729C287.788 117.947 289.444 119.678 290.566 121.745C291.688 123.812 292.235 126.14 292.151 128.488C292.008 131.407 290.885 134.406 291.835 137.172C292.931 140.362 296.406 142.074 299.69 142.902C305.447 144.354 311.517 144.12 317.31 145.422C323.103 146.724 329.039 150.181 330.6 155.883C331.626 159.629 330.556 163.662 328.783 167.12C326.975 170.649 324.462 173.773 321.398 176.301C318.334 178.829 314.784 180.708 310.965 181.823C307.146 182.938 303.139 183.265 299.189 182.785C295.238 182.304 291.428 181.026 287.991 179.029C280.988 174.959 275.932 168.08 272.917 160.587C271.208 156.216 270.005 151.665 269.331 147.023C268.656 142.678 269.229 138.287 270.452 134.061C270.509 133.903 270.533 133.735 270.521 133.568C270.509 133.4 270.461 133.237 270.381 133.089Z" fill="#282737"/>
<path d="M309.527 297H220.24C220.116 297 219.996 296.951 219.908 296.863C219.82 296.775 219.771 296.656 219.771 296.532C219.771 296.408 219.82 296.289 219.908 296.202C219.996 296.114 220.116 296.065 220.24 296.065H309.527C309.652 296.065 309.771 296.114 309.859 296.202C309.947 296.289 309.997 296.408 309.997 296.532C309.997 296.656 309.947 296.775 309.859 296.863C309.771 296.951 309.652 297 309.527 297Z" fill="#CCCCCC"/>
</g>
<defs>
<clipPath id="clip0_55_100">
<rect width="331" height="297" fill="white"/>
</clipPath>
</defs>
</svg>
